<svg width="26" height="26" viewBox="0 0 26 26" fill="none" xmlns="http://www.w3.org/2000/svg">
<rect width="26" height="26" rx="5" fill="#171717"/>
<rect width="16" height="10" transform="translate(5 6)" fill="#6A51CE"/>
<g clip-path="url(#clip0_352_2)">
<rect x="6" y="7" width="14" height="8" rx="0.5" fill="#201526" fill-opacity="0.7"/>
<path d="M13.9 10C13.9265 10 13.952 9.98761 13.9707 9.96554C13.9895 9.94348 14 9.91355 14 9.88235V9.29412C14 9.26292 13.9895 9.23299 13.9707 9.21093C13.952 9.18887 13.9265 9.17647 13.9 9.17647H13.505C13.4883 9.17666 13.4718 9.17192 13.457 9.16267C13.4423 9.15342 13.4297 9.13996 13.4205 9.12353L13.38 9.05294C13.3709 9.03667 13.3585 9.02332 13.3439 9.01408C13.3294 9.00484 13.3131 9 13.2965 9H13.1C13.0735 9 13.048 9.01239 13.0293 9.03446C13.0105 9.05652 13 9.08645 13 9.11765V9.88235C13 9.91355 13.0105 9.94348 13.0293 9.96554C13.048 9.98761 13.0735 10 13.1 10H13.9Z" fill="#5F63BF"/>
<path d="M9.9 10C9.92652 10 9.95196 9.98761 9.97071 9.96554C9.98946 9.94348 10 9.91355 10 9.88235V9.29412C10 9.26292 9.98946 9.23299 9.97071 9.21093C9.95196 9.18887 9.92652 9.17647 9.9 9.17647H9.505C9.48828 9.17666 9.47178 9.17192 9.45702 9.16267C9.44225 9.15342 9.4297 9.13996 9.4205 9.12353L9.38 9.05294C9.37089 9.03667 9.3585 9.02332 9.34392 9.01408C9.32935 9.00484 9.31306 9 9.2965 9H9.1C9.07348 9 9.04804 9.01239 9.02929 9.03446C9.01054 9.05652 9 9.08645 9 9.11765V9.88235C9 9.91355 9.01054 9.94348 9.02929 9.96554C9.04804 9.98761 9.07348 10 9.1 10H9.9Z" fill="#5F63BF"/>
<path d="M11.9 10C11.9265 10 11.952 9.98761 11.9707 9.96554C11.9895 9.94348 12 9.91355 12 9.88235V9.29412C12 9.26292 11.9895 9.23299 11.9707 9.21093C11.952 9.18887 11.9265 9.17647 11.9 9.17647H11.505C11.4883 9.17666 11.4718 9.17192 11.457 9.16267C11.4423 9.15342 11.4297 9.13996 11.4205 9.12353L11.38 9.05294C11.3709 9.03667 11.3585 9.02332 11.3439 9.01408C11.3294 9.00484 11.3131 9 11.2965 9H11.1C11.0735 9 11.048 9.01239 11.0293 9.03446C11.0105 9.05652 11 9.08645 11 9.11765V9.88235C11 9.91355 11.0105 9.94348 11.0293 9.96554C11.048 9.98761 11.0735 10 11.1 10H11.9Z" fill="#5F63BF"/>
<path d="M7.9 10C7.92652 10 7.95196 9.98761 7.97071 9.96554C7.98946 9.94348 8 9.91355 8 9.88235V9.29412C8 9.26292 7.98946 9.23299 7.97071 9.21093C7.95196 9.18887 7.92652 9.17647 7.9 9.17647H7.505C7.48828 9.17666 7.47178 9.17192 7.45702 9.16267C7.44225 9.15342 7.4297 9.13996 7.4205 9.12353L7.38 9.05294C7.37089 9.03667 7.3585 9.02332 7.34392 9.01408C7.32935 9.00484 7.31306 9 7.2965 9H7.1C7.07348 9 7.04804 9.01239 7.02929 9.03446C7.01054 9.05652 7 9.08645 7 9.11765V9.88235C7 9.91355 7.01054 9.94348 7.02929 9.96554C7.04804 9.98761 7.07348 10 7.1 10H7.9Z" fill="#5F63BF"/>
</g>
<path d="M19.0167 8.18334C19.1087 8.18334 19.1833 8.10872 19.1833 8.01667C19.1833 7.92463 19.1087 7.85001 19.0167 7.85001C18.9246 7.85001 18.85 7.92463 18.85 8.01667C18.85 8.10872 18.9246 8.18334 19.0167 8.18334Z" fill="#FD3535"/>
<path d="M18.0167 8.18334C18.1087 8.18334 18.1833 8.10872 18.1833 8.01667C18.1833 7.92463 18.1087 7.85001 18.0167 7.85001C17.9246 7.85001 17.85 7.92463 17.85 8.01667C17.85 8.10872 17.9246 8.18334 18.0167 8.18334Z" fill="#FFCE1F"/>
<path d="M17.0167 8.18334C17.1087 8.18334 17.1833 8.10872 17.1833 8.01667C17.1833 7.92463 17.1087 7.85001 17.0167 7.85001C16.9246 7.85001 16.85 7.92463 16.85 8.01667C16.85 8.10872 16.9246 8.18334 17.0167 8.18334Z" fill="#32FF6B"/>
<path d="M20 5H6C4.89543 5 4 5.89543 4 7V15C4 16.1046 4.89543 17 6 17H20C21.1046 17 22 16.1046 22 15V7C22 5.89543 21.1046 5 20 5Z" stroke="white" stroke-width="2" stroke-linecap="round" stroke-linejoin="round"/>
<path d="M19 21H21" stroke="white" stroke-linecap="round" stroke-linejoin="round"/>
<path d="M4 21L17 21" stroke="white" stroke-linecap="round" stroke-linejoin="round"/>
<defs>
<clipPath id="clip0_352_2">
<rect x="6" y="7" width="14" height="8" rx="0.5" fill="white"/>
</clipPath>
</defs>
</svg>
